REM DIRINDEX 1\2,1\3,1\4,1\6,1\5\7,1\5\8
REM DIRNAME cjc114,folder01,folder02,folder03,folder04,folder05,folder06,folder07
TITLE ""
FILE "DB4500_5th_1A_05.mp3" MP3
  TRACK 01 AUDIO
    TITLE "0:"
    INDEX 01 00:00:00
  TRACK 02 AUDIO
    TITLE "2:cjc114_0040"
    INDEX 01 00:00:03
  TRACK 03 AUDIO
    TITLE "0:"
    INDEX 01 00:01:05
  TRACK 04 AUDIO
    TITLE "3:cjc114_0041"
    INDEX 01 00:01:34
  TRACK 05 AUDIO
    TITLE "0:"
    INDEX 01 00:02:57
  TRACK 06 AUDIO
    TITLE "4:cjc114_0042"
    INDEX 01 00:03:10
  TRACK 07 AUDIO
    TITLE "0:"
    INDEX 01 00:06:65
  TRACK 08 AUDIO
    TITLE "2:cjc114_0043"
    INDEX 01 00:07:43
  TRACK 09 AUDIO
    TITLE "0:"
    INDEX 01 00:08:58
  TRACK 10 AUDIO
    TITLE "3:cjc114_0044"
    INDEX 01 00:09:10
  TRACK 11 AUDIO
    TITLE "0:"
    INDEX 01 00:10:00
  TRACK 12 AUDIO
    TITLE "4:cjc114_0045"
    INDEX 01 00:10:29
  TRACK 13 AUDIO
    TITLE "0:"
    INDEX 01 00:13:35
  TRACK 14 AUDIO
    TITLE "2:cjc114_0046"
    INDEX 01 00:14:13
  TRACK 15 AUDIO
    TITLE "0:"
    INDEX 01 00:15:27
  TRACK 16 AUDIO
    TITLE "3:cjc114_0047"
    INDEX 01 00:15:54
  TRACK 17 AUDIO
    TITLE "0:"
    INDEX 01 00:16:48
  TRACK 18 AUDIO
    TITLE "4:cjc114_0048"
    INDEX 01 00:17:00
  TRACK 19 AUDIO
    TITLE "0:"
    INDEX 01 00:19:50
  TRACK 20 AUDIO
    TITLE "2:cjc114_0049"
    INDEX 01 00:20:28
  TRACK 21 AUDIO
    TITLE "0:"
    INDEX 01 00:21:27
  TRACK 22 AUDIO
    TITLE "3:cjc114_0050"
    INDEX 01 00:21:57
  TRACK 23 AUDIO
    TITLE "0:"
    INDEX 01 00:22:34
  TRACK 24 AUDIO
    TITLE "4:cjc114_0051"
    INDEX 01 00:22:62
  TRACK 25 AUDIO
    TITLE "0:"
    INDEX 01 00:26:03
  TRACK 26 AUDIO
    TITLE "2:cjc114_0052"
    INDEX 01 00:26:56
  TRACK 27 AUDIO
    TITLE "0:"
    INDEX 01 00:27:55
  TRACK 28 AUDIO
    TITLE "3:cjc114_0053"
    INDEX 01 00:28:12
  TRACK 29 AUDIO
    TITLE "0:"
    INDEX 01 00:29:25
  TRACK 30 AUDIO
    TITLE "4:cjc114_0054"
    INDEX 01 00:29:52
  TRACK 31 AUDIO
    TITLE "0:"
    INDEX 01 00:32:70
  TRACK 32 AUDIO
    TITLE "2:cjc114_0055"
    INDEX 01 00:33:50
  TRACK 33 AUDIO
    TITLE "0:"
    INDEX 01 00:34:43
  TRACK 34 AUDIO
    TITLE "3:cjc114_0056"
    INDEX 01 00:34:71
  TRACK 35 AUDIO
    TITLE "0:"
    INDEX 01 00:35:64
  TRACK 36 AUDIO
    TITLE "4:cjc114_0057"
    INDEX 01 00:36:17
  TRACK 37 AUDIO
    TITLE "0:"
    INDEX 01 00:38:59
  TRACK 38 AUDIO
    TITLE "2:cjc114_0058"
    INDEX 01 00:39:37
  TRACK 39 AUDIO
    TITLE "0:"
    INDEX 01 00:40:42
  TRACK 40 AUDIO
    TITLE "3:cjc114_0059"
    INDEX 01 00:40:72
  TRACK 41 AUDIO
    TITLE "0:"
    INDEX 01 00:42:43
  TRACK 42 AUDIO
    TITLE "4:cjc114_0060"
    INDEX 01 00:42:66
  TRACK 43 AUDIO
    TITLE "0:"
    INDEX 01 00:45:67
  TRACK 44 AUDIO
    TITLE "2:cjc114_0061"
    INDEX 01 00:46:45
  TRACK 45 AUDIO
    TITLE "0:"
    INDEX 01 00:47:46
  TRACK 46 AUDIO
    TITLE "3:cjc114_0062"
    INDEX 01 00:47:72
  TRACK 47 AUDIO
    TITLE "0:"
    INDEX 01 00:49:31
  TRACK 48 AUDIO
    TITLE "4:cjc114_0063"
    INDEX 01 00:49:55
  TRACK 49 AUDIO
    TITLE "0:"
    INDEX 01 00:52:49
  TRACK 50 AUDIO
    TITLE "4:cjc114_0064"
    INDEX 01 00:53:25
  TRACK 51 AUDIO
    TITLE "0:"
    INDEX 01 00:56:27
  TRACK 52 AUDIO
    TITLE "2:cjc114_0065"
    INDEX 01 00:56:74
  TRACK 53 AUDIO
    TITLE "0:"
    INDEX 01 00:58:15
  TRACK 54 AUDIO
    TITLE "3:cjc114_0066"
    INDEX 01 00:58:36
  TRACK 55 AUDIO
    TITLE "0:"
    INDEX 01 01:00:19
  TRACK 56 AUDIO
    TITLE "4:cjc114_0067"
    INDEX 01 01:00:45
  TRACK 57 AUDIO
    TITLE "0:"
    INDEX 01 01:04:72
  TRACK 58 AUDIO
    TITLE "2:cjc114_0068"
    INDEX 01 01:05:44
  TRACK 59 AUDIO
    TITLE "0:"
    INDEX 01 01:06:49
  TRACK 60 AUDIO
    TITLE "3:cjc114_0069"
    INDEX 01 01:06:71
  TRACK 61 AUDIO
    TITLE "0:"
    INDEX 01 01:08:15
  TRACK 62 AUDIO
    TITLE "4:cjc114_0070"
    INDEX 01 01:08:36
  TRACK 63 AUDIO
    TITLE "0:"
    INDEX 01 01:10:55
  TRACK 64 AUDIO
    TITLE "2:cjc114_0071"
    INDEX 01 01:11:29
  TRACK 65 AUDIO
    TITLE "0:"
    INDEX 01 01:12:30
  TRACK 66 AUDIO
    TITLE "3:cjc114_0072"
    INDEX 01 01:12:58
  TRACK 67 AUDIO
    TITLE "0:"
    INDEX 01 01:13:73
  TRACK 68 AUDIO
    TITLE "4:cjc114_0073"
    INDEX 01 01:14:17
  TRACK 69 AUDIO
    TITLE "0:"
    INDEX 01 01:17:71
  TRACK 70 AUDIO
    TITLE "4:cjc114_0074"
    INDEX 01 01:18:41
  TRACK 71 AUDIO
    TITLE "0:"
    INDEX 01 01:21:53
  TRACK 72 AUDIO
    TITLE "2:cjc114_0075"
    INDEX 01 01:22:23
  TRACK 73 AUDIO
    TITLE "0:"
    INDEX 01 01:23:42
  TRACK 74 AUDIO
    TITLE "3:cjc114_0076"
    INDEX 01 01:23:63
  TRACK 75 AUDIO
    TITLE "0:"
    INDEX 01 01:25:11
  TRACK 76 AUDIO
    TITLE "4:cjc114_0077"
    INDEX 01 01:25:31
  TRACK 77 AUDIO
    TITLE "0:"
    INDEX 01 01:28:27
  TRACK 78 AUDIO
    TITLE "2:cjc114_0078"
    INDEX 01 01:28:74
  TRACK 79 AUDIO
    TITLE "0:"
    INDEX 01 01:30:13
  TRACK 80 AUDIO
    TITLE "3:cjc114_0079"
    INDEX 01 01:30:36
  TRACK 81 AUDIO
    TITLE "0:"
    INDEX 01 01:31:61
  TRACK 82 AUDIO
    TITLE "4:cjc114_0080"
    INDEX 01 01:32:12
  TRACK 83 AUDIO
    TITLE "0:"
    INDEX 01 01:35:67
